<svg xmlns="http://www.w3.org/2000/svg" version="1.1" viewBox="204.8 204.8 550.912 573.44" style="max-height: 500px" width="550.912" height="573.44">
<path transform="translate(0,0)" fill="#FCF7F3" d="M0 0 C337.92 0 675.84 0 1024 0 C1024 337.92 1024 675.84 1024 1024 C686.08 1024 348.16 1024 0 1024 C0 686.08 0 348.16 0 0 Z"/>
<path transform="translate(330.86181640625,210.7412109375)" fill="#733A04" d="M0 0 C1.54742598 -0.0027174 3.09485066 -0.0062825 4.64227295 -0.01062012 C8.80796812 -0.01966197 12.97356312 -0.01623285 17.13925982 -0.00986195 C21.52923356 -0.00475363 25.91919945 -0.0095072 30.30917358 -0.01263428 C37.68432126 -0.01626227 45.05942875 -0.01150799 52.43457031 -0.00195312 C60.91245213 0.00890488 69.39023753 0.00542044 77.86811697 -0.00560594 C85.1900675 -0.01474135 92.51198933 -0.01593307 99.83394372 -0.0107286 C104.18774958 -0.00763987 108.54151045 -0.0071123 112.89531326 -0.01380157 C167.84308701 -0.08647145 167.84308701 -0.08647145 177.26318359 8.88378906 C180.35217725 12.79651436 180.61628766 15.57866331 180.52490234 20.48535156 C179.31533493 29.16002699 172.60741237 35.00373626 166.61181641 40.79296875 C157.17124069 49.9740908 150.58265277 60.78938744 150.01283443 74.21136892 C150.01267208 75.2549612 150.01250973 76.29855347 150.01234245 77.37376976 C150.00973471 78.58517014 150.00712696 79.79657052 150.00444019 81.04468 C150.0066021 82.38056603 150.00885875 83.71645192 150.01119995 85.05233765 C150.01004731 86.47839034 150.00845882 87.90444274 150.00647271 89.33049452 C150.00229775 93.24571767 150.00436197 97.16091645 150.00745893 101.07613969 C150.00972079 105.30163631 150.00622912 109.52712873 150.003479 113.75262451 C149.99902777 122.03636568 149.99999578 130.3200978 150.00289164 138.60383932 C150.00515216 145.35113437 150.00545537 152.09842688 150.00436783 158.8457222 C150.00413798 160.28770874 150.00413798 160.28770874 150.00390349 161.75882632 C150.00358374 163.71222372 150.00325952 165.66562112 150.00293089 167.61901851 C150.00007698 185.95464502 150.00335968 204.29026654 150.00873126 222.62589224 C150.01318072 238.29665855 150.01243862 253.96741743 150.0078125 269.63818359 C150.0024331 287.86893861 150.00037109 306.09968923 150.00342476 324.33044493 C150.00374327 326.28451196 150.00405764 328.23857899 150.00436783 330.19264603 C150.0045221 331.15381191 150.00467638 332.11497778 150.00483533 333.1052699 C150.00569183 339.81692963 150.00425608 346.52858653 150.00188828 353.24024582 C149.99905172 361.4612511 149.99990751 369.68224687 150.00516902 377.9032511 C150.0077578 382.08336243 150.00889578 386.26345804 150.00551987 390.44356918 C149.9942883 405.96079003 150.0392777 421.47898796 150.41035737 436.99248989 C150.44218706 438.38659696 150.4694477 439.7808172 150.49173759 441.17510943 C150.52405738 443.09261331 150.57709808 445.00973389 150.63101387 446.92675209 C150.65637439 448.00894795 150.68173491 449.09114381 150.70786393 450.20613348 C151.20964158 453.76570669 152.27823765 456.19305203 154.13818359 459.25878906 C157.20761183 461.30507455 157.82972194 461.51005995 161.28881836 461.51757812 C162.12657806 461.52378174 162.96433777 461.52998535 163.82748413 461.53637695 C164.73567902 461.5324292 165.6438739 461.52848145 166.57958984 461.52441406 C167.99940659 461.5286438 167.99940659 461.5286438 169.44790649 461.53295898 C172.53231623 461.53724066 175.61631524 461.52462083 178.70068359 461.50878906 C179.74938629 461.50568726 180.79808899 461.50258545 181.87857056 461.49938965 C197.71031838 461.44416703 213.40193311 461.14475248 229.13818359 459.25878906 C230.72808105 459.07340576 230.72808105 459.07340576 232.35009766 458.88427734 C280.32413277 453.0758566 324.66906019 437.45222213 361.13818359 405.25878906 C361.89744141 404.59878906 362.65669922 403.93878906 363.43896484 403.25878906 C367.29049343 399.90841175 367.29049343 399.90841175 371.04833984 396.45410156 C379.11137851 388.98416912 386.04790318 385.68178268 397.15771484 385.79003906 C400.63657495 386.33717302 402.39291697 387.04442524 405.13818359 389.25878906 C408.82214483 394.61758705 409.78522534 398.44211816 409.62255859 404.88378906 C409.61109802 405.70572754 409.59963745 406.52766602 409.58782959 407.37451172 C409.29724191 417.19012361 407.37256555 426.67053642 405.38818359 436.25878906 C405.03499128 438.03450733 404.6834255 439.81054991 404.33349609 441.58691406 C402.94446037 448.5916843 401.49701572 455.58362482 400.01293945 462.56884766 C399.74057465 463.85214966 399.74057465 463.85214966 399.46270752 465.16137695 C399.11983753 466.77127932 398.77467094 468.38069511 398.42669678 469.98950195 C397.51048527 474.27409277 396.76054372 478.53446249 396.20068359 482.88378906 C395.18936199 490.59511626 393.59042098 498.17365819 392.02734375 505.78955078 C390.72484165 512.17920186 389.57051718 518.56482117 388.57568359 525.00878906 C385.18961726 546.11149117 385.18961726 546.11149117 379.32266688 551.77121866 C369.90295719 558.18577052 356.58383381 557.83280301 345.67840576 557.75326538 C344.07287276 557.75645007 342.46734246 557.76138564 340.86181951 557.7678982 C336.49300219 557.78060899 332.12456103 557.76868059 327.75576878 557.75236964 C323.0277503 557.73912422 318.29977078 557.74913225 313.57174683 557.75613403 C304.32768069 557.76618103 295.08375845 557.75498215 285.83971021 557.73643343 C275.06561238 557.71559665 264.29154511 557.71580761 253.51743093 557.71677859 C234.29137552 557.71777829 215.06538682 557.699497 195.83935547 557.67041016 C177.19806707 557.64222272 158.55683735 557.62806943 139.91552734 557.62939453 C138.19233635 557.6295144 138.19233635 557.6295144 136.43433341 557.62963669 C135.28749176 557.6297174 134.1406501 557.62979811 132.95905566 557.62988126 C111.71020929 557.63126199 90.46138775 557.61947694 69.21254943 557.60157483 C61.70794993 557.59555094 54.20335501 557.59341677 46.69875336 557.59251022 C37.55252295 557.59114395 28.40633443 557.58218634 19.26012179 557.56384461 C14.59647658 557.55463134 9.93288482 557.54850926 5.26922989 557.55103302 C0.99596196 557.55323336 -3.27718799 557.54612411 -7.55043134 557.53173597 C-9.09188703 557.52812894 -10.63335497 557.52782945 -12.17481104 557.53127055 C-35.66805435 557.57788846 -35.66805435 557.57788846 -41.42431641 551.88378906 C-42.354375 551.0059375 -42.354375 551.0059375 -43.30322266 550.11035156 C-46.64670205 546.1383986 -47.37053136 542.78635926 -47.23681641 537.68847656 C-45.50862103 526.49121066 -34.99833479 518.16101622 -26.70947266 511.55957031 C-22.26510199 507.9687139 -18.05751358 504.13466903 -13.86181641 500.25878906 C-12.93369141 499.41316406 -12.00556641 498.56753906 -11.04931641 497.69628906 C-0.84342362 486.32400853 -0.41180329 472.58021721 -0.48086548 457.92131042 C-0.47740197 456.30456884 -0.47263278 454.68782963 -0.46668375 453.07109529 C-0.45423889 448.66187442 -0.46031426 444.25285005 -0.4696424 439.84362876 C-0.4764596 435.07525909 -0.46593836 430.30692205 -0.45770264 425.53855896 C-0.4443906 416.20968621 -0.44723203 406.88088604 -0.45594056 397.5520105 C-0.46272788 389.96568582 -0.46362929 382.37938142 -0.46036911 374.79305458 C-0.45990941 373.71149391 -0.45944971 372.62993324 -0.45897608 371.515598 C-0.45801686 369.31808564 -0.45704422 367.12057328 -0.45605831 364.92306093 C-0.4475115 344.33503213 -0.45732678 323.74704345 -0.47345941 303.15902124 C-0.48685623 285.51671996 -0.48453835 267.87447793 -0.47070312 250.23217773 C-0.45462493 229.72024493 -0.44834141 209.20834728 -0.45753992 188.69640905 C-0.45849551 186.50626298 -0.45943862 184.31611691 -0.46036911 182.12597084 C-0.46083194 181.04852585 -0.46129476 179.97108086 -0.46177161 178.86098602 C-0.46435521 171.29062316 -0.46000401 163.72028271 -0.45293045 156.14992332 C-0.44449008 146.91411431 -0.44684848 137.67838171 -0.46277268 128.44258138 C-0.47062224 123.7357718 -0.47380405 119.02908934 -0.46382523 114.32228088 C-0.45480824 110.00360362 -0.45992497 105.6851699 -0.47575788 101.36651436 C-0.47907639 99.81414106 -0.47747874 98.26174667 -0.47013052 96.70938721 C-0.38291069 76.73246104 -3.42357167 60.94683042 -17.86181641 46.25878906 C-19.0255811 45.11000846 -20.19199695 43.96390342 -21.36181641 42.82128906 C-37.8528395 26.56090965 -37.8528395 26.56090965 -38.36181641 16.19628906 C-38.15642542 11.53603841 -37.04479855 8.78587739 -33.86181641 5.25878906 C-24.35628419 -1.35528622 -11.1296702 -0.033262 0 0 Z"/>
<path transform="translate(709.59765625,622.140625)" fill="#F2BE5B" d="M0 0 C2.40234375 0.859375 2.40234375 0.859375 4.40234375 3.859375 C4.30078125 5.7421875 4.30078125 5.7421875 3.77734375 7.984375 C3.57367187 8.891875 3.37 9.799375 3.16015625 10.734375 C2.63947474 12.88151526 2.11312066 15.0272854 1.58203125 17.171875 C-0.76201848 26.78444868 -2.72184219 36.44637442 -4.53515625 46.171875 C-4.66303528 46.85726349 -4.79091431 47.54265198 -4.92266846 48.24880981 C-6.53835407 56.93270738 -8.08613523 65.62663267 -9.59570312 74.32958984 C-15.81099351 109.94165477 -15.81099351 109.94165477 -25.13671875 116.69921875 C-34.38247929 122.3612479 -42.77736322 123.64008689 -53.42822266 121.21484375 C-80.00902681 113.83881261 -101.55424411 98.87806035 -123.59765625 82.859375 C-122.72265625 78.984375 -122.72265625 78.984375 -121.59765625 77.859375 C-111.82014696 76.61118232 -103.98343532 83.20274873 -96.03515625 88.109375 C-68.68043692 105.99886075 -68.68043692 105.99886075 -37.59765625 109.859375 C-32.77644457 107.78999647 -30.6850552 104.50799965 -28.59765625 99.859375 C-27.57763199 97.20949234 -26.77590994 94.53695348 -26.03515625 91.796875 C-25.82318604 91.02520996 -25.61121582 90.25354492 -25.39282227 89.45849609 C-23.56575029 82.43924443 -22.57787916 75.38470612 -21.69116211 68.1953125 C-19.95586908 54.24467843 -16.88774468 40.51822695 -13.59765625 26.859375 C-14.57863281 27.54902344 -15.55960938 28.23867188 -16.5703125 28.94921875 C-30.32479005 38.55620288 -44.12245961 47.10634652 -59.47998047 53.91845703 C-60.852523 54.52830012 -62.22161234 55.14599956 -63.58642578 55.77294922 C-76.77114761 61.81635885 -90.56631711 65.33119378 -104.59765625 68.859375 C-105.6242334 69.12298828 -106.65081055 69.38660156 -107.70849609 69.65820312 C-138.60226311 77.53337517 -170.50404835 80.05761199 -202.30444336 79.98974609 C-205.26356198 79.98441391 -208.22252675 79.98971053 -211.18164062 79.99609375 C-228.03876841 80.00257238 -244.85957816 79.40799813 -261.66015625 77.984375 C-262.6454834 77.90123047 -263.63081055 77.81808594 -264.64599609 77.73242188 C-271.36776469 77.13243739 -278.04624877 76.34235096 -284.72265625 75.359375 C-285.53355713 75.24094238 -286.34445801 75.12250977 -287.17993164 75.00048828 C-298.17672476 73.28030649 -298.17672476 73.28030649 -301.59765625 69.859375 C-301.41015625 67.359375 -301.41015625 67.359375 -300.59765625 64.859375 C-295.32397742 61.34358911 -288.24516256 62.29645277 -282.1171875 63.2421875 C-280.5553262 63.58090441 -278.99550301 63.92911342 -277.4375 64.28515625 C-273.78329869 65.02403877 -270.10989158 65.48548312 -266.41015625 65.921875 C-265.76401367 66.00099121 -265.11787109 66.08010742 -264.45214844 66.16162109 C-252.5431882 67.53307789 -240.59694807 68.02108129 -228.6171875 68.09765625 C-226.69744614 68.11241501 -226.69744614 68.11241501 -224.73892212 68.12747192 C-220.62934137 68.15489027 -216.51981998 68.16641512 -212.41015625 68.171875 C-211.70795582 68.1728783 -211.00575539 68.17388161 -210.28227615 68.17491531 C-188.57147244 68.19390746 -167.19065592 67.70106969 -145.72180176 64.20117188 C-143.47381692 63.83944798 -141.22331376 63.49838605 -138.97167969 63.16015625 C-109.79530218 58.7304054 -81.01106703 51.38757406 -54.59765625 37.859375 C-53.85563965 37.47958496 -53.11362305 37.09979492 -52.34912109 36.70849609 C-35.67389752 28.04463752 -21.68504368 17.65159071 -8.25 4.57421875 C-7.21552734 3.60162109 -7.21552734 3.60162109 -6.16015625 2.609375 C-5.58394531 2.04734375 -5.00773437 1.4853125 -4.4140625 0.90625 C-2.59765625 -0.140625 -2.59765625 -0.140625 0 0 Z"/>
<path transform="translate(457,497)" fill="#F2BF5D" d="M0 0 C1.76171875 1.37890625 1.76171875 1.37890625 3 3 C3.1875 5.4375 3.1875 5.4375 2 8 C-2.56625113 10.8100007 -7.35917276 12.51333362 -12.375 14.375 C-28.57500928 20.51080028 -40.20768457 30.08636759 -48.01953125 45.5078125 C-50.32652711 51.37180994 -50.03571098 54.96029171 -47.75 60.8125 C-47.27832928 62.06107838 -46.8069742 63.30977604 -46.3359375 64.55859375 C-45.89507812 65.69425781 -45.45421875 66.82992187 -45 68 C-39.85047147 81.45594193 -38.48864259 95.10864474 -38.6875 109.375 C-38.69309937 110.09334015 -38.69869873 110.8116803 -38.70446777 111.55178833 C-38.84059723 128.95487741 -40.84647287 145.11152233 -45 162 C-45.37125 163.59521484 -45.37125 163.59521484 -45.75 165.22265625 C-47.0873195 170.62512311 -48.94651734 175.36117441 -51.55859375 180.2734375 C-52.61725871 182.27600699 -53.62294534 184.30681443 -54.59765625 186.3515625 C-58.34866419 194.19535588 -62.58462894 201.17192345 -68 208 C-68.7734375 209.0003125 -69.546875 210.000625 -70.34375 211.03125 C-75.91558219 218.01367262 -81.85099359 223.66152344 -89 229 C-89.77730469 229.60328125 -90.55460937 230.2065625 -91.35546875 230.828125 C-101.83771376 238.62396551 -117.47937016 248.35206298 -131 247 C-131.99 246.34 -132.98 245.68 -134 245 C-133.74169922 243.14575195 -133.74169922 243.14575195 -133 241 C-131.31689453 239.73901367 -131.31689453 239.73901367 -129.1328125 238.66796875 C-128.33480225 238.26562012 -127.53679199 237.86327148 -126.71459961 237.44873047 C-125.86003174 237.03252441 -125.00546387 236.61631836 -124.125 236.1875 C-122.37721518 235.30150517 -120.63110856 234.41219179 -118.88671875 233.51953125 C-118.04157715 233.08850098 -117.19643555 232.6574707 -116.32568359 232.21337891 C-107.82593441 227.77880475 -100.29930742 222.17722688 -93 216 C-91.76443359 214.96746094 -91.76443359 214.96746094 -90.50390625 213.9140625 C-70.73977963 196.83243045 -60.68263831 175.20877717 -54.875 150.125 C-54.70411865 149.40618652 -54.5332373 148.68737305 -54.35717773 147.94677734 C-47.98090845 119.46166003 -48.35198491 81.821684 -63 56 C-72.86741578 40.55534921 -86.64466758 27.05893972 -101.75 16.82421875 C-104.05687367 14.95388888 -105.02241382 13.77348889 -106 11 C-106.125 7.75 -106.125 7.75 -106 5 C-103.1466898 3.80367235 -102.08640133 3.96610318 -99.15234375 5.1171875 C-91.33985463 9.38890087 -84.73090119 14.150925 -78 20 C-76.96875 20.78375 -75.9375 21.5675 -74.875 22.375 C-71.15677757 25.76989874 -68.26263958 29.64981389 -65.24609375 33.671875 C-62.76950358 36.23891455 -61.49677956 36.72959877 -58 37 C-57.63648438 36.43152344 -57.27296875 35.86304688 -56.8984375 35.27734375 C-46.39383348 19.14334937 -21.43399456 -4.96540415 0 0 Z"/>
<path transform="translate(456,334)" fill="#F5C363" d="M0 0 C2.39497075 2.39497075 1.73349213 8.00198934 1.79150391 11.28955078 C1.65222794 15.33361844 1.31323813 17.52639893 -0.9609375 20.96484375 C-3.31682724 23.09619855 -5.71020341 25.01336515 -8.32324219 26.81982422 C-10.05041364 28.03548334 -11.68342191 29.32580753 -13.3203125 30.66015625 C-16.82637654 33.51252169 -20.40033482 36.26708229 -24 39 C-24.5770166 39.43924805 -25.1540332 39.87849609 -25.74853516 40.33105469 C-33.68967116 46.34429772 -41.84386893 52.06115592 -50.0625 57.6875 C-50.95525635 58.31245361 -51.8480127 58.93740723 -52.76782227 59.58129883 C-56.31370684 61.97687657 -59.05431025 63.82499691 -63.29296875 64.609375 C-66.62247949 63.85987475 -68.54397373 62.64063095 -71.25 60.5625 C-72.20777344 59.82773437 -73.16554688 59.09296875 -74.15234375 58.3359375 C-77.62865974 55.48430929 -80.94274876 52.49023991 -84.24609375 49.44140625 C-90.14157181 44.21491861 -96.46831588 38.80642108 -103.16943359 34.65649414 C-105 33 -105 33 -105.45410156 30.73168945 C-105.4331543 29.86761475 -105.41220703 29.00354004 -105.390625 28.11328125 C-105.37773437 27.17548828 -105.36484375 26.23769531 -105.3515625 25.27148438 C-105.31804687 24.29501953 -105.28453125 23.31855469 -105.25 22.3125 C-105.23195313 21.32443359 -105.21390625 20.33636719 -105.1953125 19.31835938 C-105.14815447 16.87793158 -105.08236042 14.43945231 -105 12 C-100.32666016 10.82861328 -100.32666016 10.82861328 -97.38671875 12.37109375 C-92.2139239 16.3311639 -87.40523622 20.35887282 -82.89453125 25.0625 C-80.39384381 27.61990407 -77.73149465 29.94266206 -75.00390625 32.25390625 C-73.6147796 33.46431485 -72.27018251 34.72701589 -70.96484375 36.02734375 C-70.29582031 36.67832031 -69.62679687 37.32929688 -68.9375 38 C-68.34839844 38.598125 -67.75929688 39.19625 -67.15234375 39.8125 C-63.73645369 41.697129 -61.68851545 41.06452363 -58 40 C-55.5161367 38.28194296 -53.47970298 36.21937317 -51.375 34.0625 C-50.14336565 32.86302234 -48.90761099 31.66776229 -47.66796875 30.4765625 C-47.05228027 29.88391602 -46.4365918 29.29126953 -45.80224609 28.68066406 C-35.03000519 18.63513353 -22.04760775 10.16999314 -9.703125 2.16796875 C-8.76001465 1.55538208 -8.76001465 1.55538208 -7.79785156 0.93041992 C-5.13543907 -0.44742554 -2.92058106 -0.42740211 0 0 Z"/>
<path transform="translate(453.6875,387.1875)" fill="#F3C161" d="M0 0 C2.3125 0.8125 2.3125 0.8125 4.3125 2.8125 C4.81147575 5.89342675 4.72914421 9.00821782 4.75 12.125 C4.78287109 12.98029297 4.81574219 13.83558594 4.84960938 14.71679688 C4.88568627 18.95091281 4.83144563 21.11959519 2.23828125 24.58203125 C1.27277344 25.31808594 0.30726563 26.05414063 -0.6875 26.8125 C-1.23929932 27.23926025 -1.79109863 27.66602051 -2.35961914 28.10571289 C-4.19503088 29.50233669 -6.05999775 30.848087 -7.9375 32.1875 C-9.27286182 33.15264158 -10.60749951 34.11878587 -11.94140625 35.0859375 C-12.58352051 35.5509668 -13.22563477 36.01599609 -13.88720703 36.49511719 C-16.92945875 38.72131603 -19.89622929 41.04029431 -22.85546875 43.375 C-23.46003906 43.849375 -24.06460938 44.32375 -24.6875 44.8125 C-25.26370087 45.32816025 -25.83990173 45.8438205 -26.43356323 46.37510681 C-29.31286299 48.21130999 -31.18032313 48.21104715 -34.58251953 48.24829102 C-35.77120636 48.26743057 -36.95989319 48.28657013 -38.18460083 48.30628967 C-40.10802811 48.31129738 -40.10802811 48.31129738 -42.0703125 48.31640625 C-43.40827754 48.32605683 -44.74623946 48.33615001 -46.084198 48.34666443 C-48.89019084 48.36461723 -51.69590692 48.37018699 -54.50195312 48.3684082 C-58.073113 48.36810471 -61.64246461 48.40891771 -65.21319771 48.46072483 C-67.97933856 48.49433587 -70.74505524 48.50015816 -73.51137924 48.49857903 C-75.45996153 48.50377857 -77.40841132 48.53616283 -79.35671997 48.56922913 C-88.53862557 48.49905027 -94.54440885 46.36542395 -101.43305969 40.26724243 C-103.29936153 38.10293979 -103.05975424 36.37344488 -103.05078125 33.55859375 C-103.04981445 32.03008789 -103.04981445 32.03008789 -103.04882812 30.47070312 C-103.03271484 29.40787109 -103.01660156 28.34503906 -103 27.25 C-103.00322266 26.18330078 -103.00644531 25.11660156 -103.00976562 24.01757812 C-102.95446528 16.07946528 -102.95446528 16.07946528 -100.6875 13.8125 C-89.69120963 13.8125 -78.38851725 25.1506801 -70.39453125 31.6875 C-69.72808594 32.22375 -69.06164062 32.76 -68.375 33.3125 C-67.82199219 33.7765625 -67.26898438 34.240625 -66.69921875 34.71875 C-63.59936366 36.40410811 -61.21617983 36.74185204 -57.6875 36.8125 C-55.04953977 35.47853148 -53.01977082 34.23987341 -50.6875 32.5 C-49.35847816 31.56062432 -48.02903982 30.62183766 -46.69921875 29.68359375 C-46.02938965 29.20132324 -45.35956055 28.71905273 -44.66943359 28.22216797 C-41.66668401 26.08643551 -38.58152036 24.08194702 -35.5 22.0625 C-28.39885371 17.35710557 -21.43084187 12.46396813 -14.47583008 7.54589844 C-3.43594987 -0.23971743 -3.43594987 -0.23971743 0 0 Z"/>
<path transform="translate(411.43359375,269.1640625)" fill="#F4C15E" d="M0 0 C6.05548639 4.33193091 9.95341277 10.57080156 11.56640625 17.8359375 C12.65220887 26.10680433 10.677346 32.19015744 6.09375 39.03515625 C1.84513714 44.46896135 -2.68419841 47.3706685 -9.43359375 48.8359375 C-17.57585871 49.71519221 -24.62310825 49.68462039 -31.43359375 44.8359375 C-32.48546875 44.1140625 -33.53734375 43.3921875 -34.62109375 42.6484375 C-40.51174764 36.75778361 -43.34492341 30.04866199 -43.87109375 21.7734375 C-43.77679674 14.72473563 -40.2527876 8.11856048 -35.72265625 2.84375 C-25.39488673 -6.54937975 -11.95725246 -6.78267583 0 0 Z"/>
<path transform="translate(341.060302734375,224.627685546875)" fill="#F0BD58" d="M0 0 C1.30490387 -0.00365067 2.60980774 -0.00730133 3.95425415 -0.01106262 C7.51841209 -0.02043239 11.08229351 -0.0110789 14.64642978 0.00226951 C18.38628068 0.01362864 22.12611885 0.00947299 25.86598206 0.00752258 C32.14621467 0.0066409 38.42633909 0.01769261 44.70654297 0.03613281 C51.95302545 0.05728929 59.1993494 0.0608115 66.44585651 0.05457085 C73.43348485 0.04886265 80.42105772 0.05454058 87.40867805 0.0657444 C90.37458389 0.07037207 93.34045561 0.07127219 96.30636406 0.06915855 C100.45432611 0.06691341 104.60206909 0.08143179 108.75 0.09765625 C109.97259018 0.09517883 111.19518036 0.09270142 112.45481873 0.09014893 C127.75287353 0.18549072 127.75287353 0.18549072 131.93969727 4.37231445 C132.06469727 6.80981445 132.06469727 6.80981445 130.93969727 9.37231445 C123.90169335 12.94042325 117.21409294 12.79813788 109.44287109 12.76049805 C108.09021075 12.76456934 106.73755374 12.76991435 105.38490295 12.77642822 C101.73218102 12.79003751 98.07971491 12.78483089 94.42698884 12.77529097 C90.59631327 12.76766575 86.76565878 12.77474747 82.9349823 12.77944946 C76.50690803 12.78489673 70.07893742 12.77774043 63.65087891 12.76342773 C56.22420844 12.74708229 48.79778483 12.7524075 41.37112027 12.76890695 C34.98450034 12.78252635 28.59795464 12.7844399 22.21132487 12.77659094 C18.40112967 12.77191958 14.5910505 12.77127516 10.78086281 12.78120041 C7.20122028 12.78987521 3.62189602 12.78383915 0.04228783 12.76651764 C-1.89494008 12.76066928 -3.83219495 12.7695625 -5.76940918 12.77890015 C-6.92587448 12.77044067 -8.08233978 12.7619812 -9.27384949 12.75326538 C-10.7778394 12.75156877 -10.7778394 12.75156877 -12.31221294 12.74983788 C-15.57159002 12.30207551 -17.46841192 11.38469799 -20.06030273 9.37231445 C-20.37280273 6.18481445 -20.37280273 6.18481445 -20.06030273 3.37231445 C-13.48577811 -0.24533565 -7.38514677 -0.04609624 0 0 Z"/>
<path transform="translate(365.376708984375,470.61181640625)" fill="#F5C25E" d="M0 0 C0.93718872 -0.00525696 1.87437744 -0.01051392 2.83996582 -0.01593018 C5.93327578 -0.02911735 9.0260697 -0.02039576 12.11938477 -0.01025391 C14.27262979 -0.01227518 16.42587414 -0.01518706 18.57911682 -0.01895142 C23.09073406 -0.02337318 27.60217303 -0.01694896 32.11376953 -0.00292969 C37.89194928 0.01415168 43.66971066 0.00432652 49.44787502 -0.01364708 C53.8943038 -0.02449757 58.34063372 -0.02103255 62.78706551 -0.0132637 C64.91728833 -0.01126467 67.04752018 -0.01371053 69.17773247 -0.02070236 C72.15779192 -0.02833634 75.13717808 -0.01668452 78.1171875 0 C78.99478226 -0.00607269 79.87237701 -0.01214539 80.77656555 -0.0184021 C85.82065683 0.03381352 89.20470315 0.67786079 93.62329102 3.38818359 C93.62329102 5.36818359 93.62329102 7.34818359 93.62329102 9.38818359 C90.71428267 11.04307952 88.62822891 11.63967687 85.29014587 11.64888 C84.43073898 11.65596481 83.57133209 11.66304962 82.68588257 11.67034912 C81.75120148 11.6678717 80.81652039 11.66539429 79.85351562 11.6628418 C78.8628862 11.66795273 77.87225677 11.67306366 76.85160828 11.67832947 C73.57622239 11.69223318 70.30104666 11.69126843 67.02563477 11.68896484 C64.75167258 11.69285064 62.47771112 11.69718506 60.20375061 11.70195007 C55.43821865 11.70941345 50.67276078 11.70911961 45.90722656 11.70385742 C39.79132774 11.69805515 33.67573101 11.71501169 27.55988216 11.7382021 C22.86481444 11.75290938 18.16982003 11.75381537 13.47473335 11.75069237 C11.21921756 11.75120685 8.96369779 11.75646817 6.70820427 11.76650429 C3.5598248 11.77879639 0.41204131 11.77212097 -2.73632812 11.76049805 C-3.67303345 11.76814178 -4.60973877 11.77578552 -5.5748291 11.78366089 C-6.43141617 11.77664658 -7.28800323 11.76963226 -8.17054749 11.7624054 C-8.91476991 11.76257314 -9.65899233 11.76274088 -10.42576694 11.7629137 C-12.93873913 11.28023081 -13.84672626 10.40759935 -15.37670898 8.38818359 C-15.37670898 5.88818359 -15.37670898 5.88818359 -14.37670898 3.38818359 C-9.89316386 -0.31394555 -5.53167878 -0.03818947 0 0 Z"/>
<path transform="translate(355,586)" fill="#F3C161" d="M0 0 C3.21406855 -0.36732212 4.58127241 -0.32301842 7.1875 1.6875 C8.5796875 2.8321875 8.5796875 2.8321875 10 4 C11.56897512 4.7996534 13.15427258 5.56766278 14.75 6.3125 C25.40811789 11.51505309 35.36743386 20.05423083 40.390625 31.00390625 C41.43102918 34.41189687 41.25264011 37.46303846 41 41 C37.67024076 40.42698839 36.16842569 39.49712839 33.94140625 36.98046875 C33.39033203 36.37009766 32.83925781 35.75972656 32.27148438 35.13085938 C31.70751953 34.48955078 31.14355469 33.84824219 30.5625 33.1875 C25.21724013 27.13155353 25.21724013 27.13155353 19 22 C18.34 22 17.68 22 17 22 C17.14819815 26.89053906 19.67128018 29.0615512 23.0234375 32.234375 C24.90748153 33.91735504 26.81813135 35.5597979 28.75 37.1875 C31.20692109 39.26898146 33.39277174 41.16371483 35 44 C35 45.32 35 46.64 35 48 C25.96099336 48.51538196 19.25370901 43.33360463 12.625 37.625 C4.71946434 30.10723587 -0.29388908 20.8947124 -1.28125 9.85546875 C-1.3561457 2.7122914 -1.3561457 2.7122914 0 0 Z"/>
<path transform="translate(355,538)" fill="#F2BF5D" d="M0 0 C13.19889725 4.88756157 26.25780992 13.11609121 34 25 C34.41378906 25.59941406 34.82757813 26.19882812 35.25390625 26.81640625 C37.92860818 30.9822312 38.39916466 34.11023296 38 39 C35.30270549 38.90975595 33.52016548 38.46129144 31.48144531 36.65332031 C29.25008896 34.22176751 27.12113539 31.71252875 24.9921875 29.19140625 C21.25309161 24.92705642 18.31728988 22.95630086 13 21 C10.5625 18.8125 10.5625 18.8125 9 17 C10.56612193 20.84411747 13.02094121 23.15950209 16 26 C16.72960937 26.74121094 17.45921875 27.48242188 18.2109375 28.24609375 C20.28931495 30.29827316 22.38248319 32.27391222 24.55078125 34.2265625 C25.16630859 34.7834375 25.78183594 35.3403125 26.41601562 35.9140625 C27.69500317 37.06791738 28.97898992 38.2162518 30.26757812 39.359375 C30.87666016 39.91367187 31.48574219 40.46796875 32.11328125 41.0390625 C32.66798096 41.53615723 33.22268066 42.03325195 33.79418945 42.54541016 C35 44 35 44 35 47 C25.94405404 48.24297297 19.05390083 43.46731468 11.78515625 38.48046875 C4.02570685 32.3170549 0.16066802 23.50693929 -2 14 C-2.37920952 9.96446169 -2.56340516 6.02245082 -2 2 C-1.34 1.34 -0.68 0.68 0 0 Z"/>
<path transform="translate(458,526)" fill="#F1BD5D" d="M0 0 C2.27043756 2.27043756 1.30825341 7.00264071 1.32128906 10.06420898 C1.21880617 15.89811706 0.01209062 20.07017695 -3 25 C-3.598125 26.03125 -4.19625 27.0625 -4.8125 28.125 C-10.53022123 35.63971933 -17.25012166 41.20723324 -26 45 C-29.37109375 45.19140625 -29.37109375 45.19140625 -32 45 C-31.47086271 41.20458314 -30.65610691 39.12580068 -28.0625 36.3125 C-27.13050781 35.2915625 -27.13050781 35.2915625 -26.1796875 34.25 C-22.91473779 30.87972933 -19.54204425 27.62255037 -16.13671875 24.39453125 C-13.98413295 21.98221846 -12.98192742 20.05428254 -12 17 C-19.07820921 21.35582105 -25.47766472 26.58649292 -30.25 33.4375 C-32.66395264 36.88311396 -32.66395264 36.88311396 -35.875 38 C-36.57625 38 -37.2775 38 -38 38 C-38.99528338 30.70125525 -35.89273259 25.04908031 -32 19 C-26.016027 12.01869817 -17.84708557 7.584243 -10 3 C-8.65421875 2.15115234 -8.65421875 2.15115234 -7.28125 1.28515625 C-4.62549582 -0.21097924 -3.00267583 -0.33363065 0 0 Z"/>
<path transform="translate(456.625,631.75)" fill="#F2C060" d="M0 0 C2.375 0.25 2.375 0.25 3.375 1.25 C4.65299801 11.05496832 1.96508039 21.24926715 -3.875 29.1875 C-10.81061935 37.19352149 -19.19649631 42.37173575 -29.94921875 43.4921875 C-31.875 43.5 -31.875 43.5 -34.625 43.25 C-34.38347445 39.96676205 -33.5153528 39.15259021 -31 36.91796875 C-29.88242997 36.08113044 -28.756946 35.25478782 -27.625 34.4375 C-26.44270316 33.55469442 -25.26041152 32.67188189 -24.078125 31.7890625 C-22.9274396 30.94222402 -21.77641699 30.09584349 -20.625 29.25 C-18.86919687 27.94527336 -17.11822889 26.63397996 -15.375 25.3125 C-14.66859375 24.78785156 -13.9621875 24.26320313 -13.234375 23.72265625 C-11.35114589 22.23912431 -11.35114589 22.23912431 -10.625 19.25 C-18.0903455 22.32682352 -23.31668089 26.40505431 -28.984375 32.140625 C-31.95465057 34.51333033 -33.88059336 34.96533751 -37.625 35.25 C-37.48789123 27.70901765 -34.77851527 23.64603364 -29.625 18.25 C-24.27375258 13.19742686 -17.60475626 9.8772927 -11.17211914 6.40820312 C-10.50043701 6.04275391 -9.82875488 5.67730469 -9.13671875 5.30078125 C-8.53303467 4.97762939 -7.92935059 4.65447754 -7.30737305 4.3215332 C-5.54084113 3.28867143 -5.54084113 3.28867143 -4.06958008 1.63745117 C-2.625 0.25 -2.625 0.25 0 0 Z"/>
<path transform="translate(354,632)" fill="#F3C05E" d="M0 0 C7.18832322 0.5561167 11.52724379 4.6732483 17 9 C17.73992187 9.56074219 18.47984375 10.12148438 19.2421875 10.69921875 C25.46585035 15.69994396 30.4611718 22.3835154 33 30 C33.11659598 31.49676706 33.17498959 32.99875061 33.1875 34.5 C33.20167969 35.2734375 33.21585937 36.046875 33.23046875 36.84375 C33 39 33 39 31 42 C28 41 28 41 26.23828125 37.8671875 C25.59233189 36.53840613 24.95062736 35.20755543 24.3125 33.875 C20.75424444 26.80852295 16.86066551 20.62022184 9 18 C11.6863321 22.92910703 14.62371719 27.3082991 18.125 31.6875 C22.95436208 37.74884221 25.30528393 41.0626179 25 49 C17.99376447 48.19488247 10.63408915 40.06933564 6.1796875 34.87890625 C4.915513 32.96674294 3.93648678 31.09122259 3 29 C2.41992188 27.84177734 2.41992188 27.84177734 1.828125 26.66015625 C-1.8149271 18.36347937 -1.61767188 9.89042471 -1 1 C-0.67 0.67 -0.34 0.34 0 0 Z"/>
<path transform="translate(419,708)" fill="#EFBB58" d="M0 0 C3.46679694 0.02419499 6.91632456 -0.02514578 10.38085938 -0.12695312 C12.25415001 -0.15657726 14.1284119 -0.08516661 16 0 C18 2 18 2 18 5 C15.70056957 6.86242133 13.44213863 8.53504905 11 10.1875 C10.33226562 10.65091797 9.66453125 11.11433594 8.9765625 11.59179688 C7.32390133 12.73685497 5.66272331 13.86960265 4 15 C5.22527416 18.30365976 6.60907742 21.05508438 8.625 23.9375 C10.87772503 27.41898414 11.52715062 29.78279508 11 34 C8.9375 34.375 8.9375 34.375 6 34 C3.46427718 32.20822891 1.22825512 30.15761879 -1 28 C-3.9719385 29.12451727 -6.33440687 30.22293791 -9 32 C-12.125 32.1875 -12.125 32.1875 -15 32 C-16 31 -16 31 -16.3125 28.6875 C-15.91080481 25.23292134 -14.60100327 24.19459651 -12 22 C-13.11375 21.87625 -14.2275 21.7525 -15.375 21.625 C-19 21 -19 21 -21 19 C-21.25 16.5 -21.25 16.5 -21 14 C-20.34 13.34 -19.68 12.68 -19 12 C-15.31712283 12.32025019 -12.08422293 12.90713444 -9 15 C-7.75 17.125 -7.75 17.125 -7 19 C-4.58354218 19.16687448 -4.58354218 19.16687448 -2 19 C-1.34 18.34 -0.68 17.68 0 17 C0.02308597 14.77871445 0.02308597 14.77871445 -0.375 12.375 C-0.48585938 11.55773437 -0.59671875 10.74046875 -0.7109375 9.8984375 C-0.80632812 9.27195312 -0.90171875 8.64546875 -1 8 C-2.0828125 8.7734375 -2.0828125 8.7734375 -3.1875 9.5625 C-6 11 -6 11 -8.5625 10.875 C-11 10 -11 10 -13 8.3125 C-13.66 7.879375 -14.32 7.44625 -15 7 C-18.13759973 7.82175231 -19.70255875 8.70255875 -22 11 C-24.5625 11.1875 -24.5625 11.1875 -27 11 C-28 10 -28 10 -28.3125 7.125 C-28 4 -28 4 -26.37890625 2.30859375 C-23.26871924 0.59773554 -21.15126736 0.76899538 -17.625 0.9375 C-13.96522291 1.10463268 -11.38195143 1.13036378 -7.8984375 -0.05859375 C-4.60101976 -1.12958792 -3.31386986 -0.78060045 0 0 Z"/>
<path transform="translate(456.75,586.1875)" fill="#F1BD5D" d="M0 0 C2.25 0.8125 2.25 0.8125 3.25 1.8125 C4.24938382 13.65135452 1.50189245 23.35615387 -5.75 32.8125 C-11.04876495 38.04913537 -16.49705333 41.96853051 -23.75 43.8125 C-26.75 43.5 -26.75 43.5 -28.75 42.8125 C-28.36411214 38.34871613 -25.25429967 36.2794117 -22.0625 33.5625 C-16.59643153 28.7411639 -11.11185378 23.89806135 -8.75 16.8125 C-13.73041328 20.32476424 -17.85180124 23.67155644 -21.375 28.6875 C-24.2090442 32.59675535 -24.2090442 32.59675535 -26.73828125 33.60546875 C-28.6875 33.875 -28.6875 33.875 -31.75 33.8125 C-31.19806823 25.16556897 -27.0844001 18.40241544 -20.84375 12.50390625 C-17.55717556 9.84889369 -14.01701714 7.66046587 -10.3984375 5.48828125 C-7.66307979 3.83781733 -7.66307979 3.83781733 -5.0859375 1.59375 C-2.75 -0.1875 -2.75 -0.1875 0 0 Z"/>
<path transform="translate(648.375,684.0625)" fill="#F1BE5C" d="M0 0 C4.87456563 1.26066352 9.43238065 2.85804194 12.625 6.9375 C12.625 7.5975 12.625 8.2575 12.625 8.9375 C13.285 8.6075 13.945 8.2775 14.625 7.9375 C18.48561033 6.65062989 21.56650283 6.79992382 25.625 6.9375 C30.50635593 15.52345642 30.50635593 15.52345642 29.625 20.9375 C28.4375 22.875 28.4375 22.875 26.625 23.9375 C24.3125 23.6875 24.3125 23.6875 21.625 22.9375 C20.573125 22.81375 19.52125 22.69 18.4375 22.5625 C15.625 21.9375 15.625 21.9375 13.625 18.9375 C11.9614521 18.26308869 10.29433058 17.5974679 8.625 16.9375 C7.325625 15.8546875 7.325625 15.8546875 6 14.75 C5.21625 14.151875 4.4325 13.55375 3.625 12.9375 C2.635 13.2675 1.645 13.5975 0.625 13.9375 C-0.18063638 16.04334438 -0.18063638 16.04334438 -0.5625 18.5 C-0.72105469 19.32628906 -0.87960937 20.15257812 -1.04296875 21.00390625 C-1.15253906 21.64199219 -1.26210938 22.28007813 -1.375 22.9375 C-0.055 22.9375 1.265 22.9375 2.625 22.9375 C2.44813248 27.35918788 1.85106282 30.18672369 -1.125 33.4375 C-3.36602597 35.44743696 -3.97320956 35.91881207 -7.0625 36.0625 C-9.89504558 34.68450485 -10.81218695 33.67468124 -12.375 30.9375 C-13.00513208 21.40532021 -11.67673935 9.15543131 -5.44921875 1.6015625 C-3.375 -0.0625 -3.375 -0.0625 0 0 Z"/>
<path transform="translate(463,250)" fill="#F2C160" d="M0 0 C0.89272617 2.98106776 1.18607096 4.52656945 0.03125 7.46484375 C-6.50219367 18.01502192 -12.44672192 21.70725147 -24.16015625 25.1171875 C-27.64752314 25.91896259 -30.44846919 26.34829277 -34 26 C-36 24 -36 24 -36.01171875 22.203125 C-34.45926289 18.82248753 -31.70536672 16.94935014 -28.8125 14.75 C-28.19407227 14.27127441 -27.57564453 13.79254883 -26.93847656 13.29931641 C-9.04235508 -0.23795671 -9.04235508 -0.23795671 0 0 Z"/>
<path transform="translate(439,292)" fill="#F2C05C" d="M0 0 C7.07257696 2.35752565 13.58997543 6.29607 18.5625 11.875 C20.42293947 15.91943362 20.30435507 18.58685146 20 23 C15.29977732 23.58752783 12.81207679 23.25198063 8.9375 20.4375 C5.21199401 17.38011594 1.72092601 13.99893671 -1 10 C-1 9.34 -1 8.68 -1 8 C-1.928125 8.061875 -2.85625 8.12375 -3.8125 8.1875 C-7 8 -7 8 -8.9375 6.75 C-10 5 -10 5 -9.8125 2.875 C-8.02659757 -1.24631329 -3.89591844 -0.25547006 0 0 Z"/>
<path transform="translate(393,327)" fill="#F0BE5B" d="M0 0 C2.52091985 0.37706066 3.72619559 0.70457946 5.484375 2.6015625 C8.39964049 7.2623882 9.85926524 10.36703901 9 16 C8.03053987 18.80852183 6.97237456 21.57037218 5.88671875 24.3359375 C4.74221163 27.77450073 4.76624125 30.41569915 5 34 C4 35 4 35 1.5625 35.1875 C-1 35 -1 35 -3 33 C-2.65417767 30.925066 -2.05344021 29.12914717 -1.25 27.1875 C-0.77681332 24.78807013 -0.77681332 24.78807013 -2.4375 22.0625 C-4.90909222 16.78748141 -4.91188282 10.67234196 -4 5 C-1.97265625 2.1015625 -1.97265625 2.1015625 0 0 Z"/>
<path transform="translate(489,710)" fill="#F2C262" d="M0 0 C3.40667322 0.44824648 5.07914607 1.05276405 8 3 C11.37156534 2.75479525 14.11727816 2.46732333 17.125 0.875 C19.69424496 -0.32398098 21.33249205 0.25902557 24 1 C24.495 3.475 24.495 3.475 25 6 C23.2675 6.556875 23.2675 6.556875 21.5 7.125 C16.67145792 8.90983609 12.94895091 11.75471853 9 15 C7.0625 14.1875 7.0625 14.1875 5 13 C4.67 12.01 4.34 11.02 4 10 C0.60085025 11.13304992 -0.05254451 12.12518475 -2 15 C-5.88019859 13.74155722 -7.9411842 12.57583797 -10 9 C-10 8.01 -10 7.02 -10 6 C-9.36191406 5.65066406 -8.72382813 5.30132813 -8.06640625 4.94140625 C-7.24011719 4.48636719 -6.41382813 4.03132812 -5.5625 3.5625 C-4.73878906 3.11003906 -3.91507812 2.65757812 -3.06640625 2.19140625 C-1.07691202 1.16337603 -1.07691202 1.16337603 0 0 Z"/>
<path transform="translate(560,727)" fill="#EFBD5D" d="M0 0 C0.6084375 0.32484375 1.216875 0.6496875 1.84375 0.984375 C4.46338166 2.21825948 6.12983279 2.28701672 9 2 C11.25132517 1.08431094 11.25132517 1.08431094 13 0 C13 0.66 13 1.32 13 2 C13.5775 2.226875 14.155 2.45375 14.75 2.6875 C18.49847973 4.87411318 20.58574009 7.59788954 21.8125 11.75 C21.874375 12.4925 21.93625 13.235 22 14 C21.67 14.33 21.34 14.66 21 15 C14.87699674 14.75988223 12.27099904 13.06265763 8 9 C4.91258316 10.08967653 2.67013887 11.24052374 0 13.1875 C-3 15 -3 15 -5.875 14.75 C-6.57625 14.5025 -7.2775 14.255 -8 14 C-7.89642657 8.92490209 -7.09274396 6.6735273 -3.4375 3.0625 C-2.30559271 2.02624684 -1.16409107 0.99996335 0 0 Z"/>
<path transform="translate(565,708)" fill="#F4C364" d="M0 0 C5.47932789 1.54545146 10.11429181 4.15543212 15 7 C14.19095897 11.79280002 11.74015409 13.13520113 8 16 C4.125 14.25 4.125 14.25 3 12 C0.53199953 13.15173355 -1.04783565 14.04783565 -3 16 C-6.18109721 15.83257383 -7.76381387 15.17873545 -10.3125 13.25 C-12 11 -12 11 -12.375 8.375 C-12 6 -12 6 -10 4 C-8.2984375 3.7834375 -8.2984375 3.7834375 -6.5625 3.5625 C-3.05185595 3.00818778 -2.04507691 2.76686876 0 0 Z"/>
<path transform="translate(485,728)" fill="#F0BD5C" d="M0 0 C0.6084375 0.33644531 1.216875 0.67289063 1.84375 1.01953125 C4.65641364 2.29847794 6.06350587 1.80753589 9 1 C9.66 0.731875 10.32 0.46375 11 0.1875 C13 0 13 0 15.5625 1.625 C18.0149345 4.01455157 19.62428573 5.86642862 21 9 C20.6875 11.8125 20.6875 11.8125 20 14 C14.71862571 13.48474397 11.42778844 11.74522883 7 9 C7 8.34 7 7.68 7 7 C6.41992188 7.433125 5.83984375 7.86625 5.2421875 8.3125 C-2.51669596 13.84358524 -2.51669596 13.84358524 -8 13 C-7.88759583 8.3914291 -6.61543768 6.27090202 -3.4375 3.125 C-2.30330262 2.07067568 -1.16107206 1.02465367 0 0 Z"/>
<path transform="translate(688,666)" fill="#F2C05E" d="M0 0 C-0.42570562 6.17273153 -1.42217852 10.42217852 -6 15 C-7.73833013 15.42583255 -9.4916761 15.79120054 -11.25 16.125 C-12.20390625 16.31320312 -13.1578125 16.50140625 -14.140625 16.6953125 C-17.04103657 17.00437275 -19.19256673 16.72747358 -22 16 C-22.33 14.35 -22.66 12.7 -23 11 C-20.86321349 9.57547566 -18.72555414 8.1526688 -16.58203125 6.73828125 C-14.89140151 5.60011146 -13.2207441 4.43155729 -11.57421875 3.23046875 C-10.80722656 2.68003906 -10.04023437 2.12960937 -9.25 1.5625 C-8.55390625 1.04816406 -7.8578125 0.53382813 -7.140625 0.00390625 C-4.38463931 -1.28859069 -2.86315819 -0.8459331 0 0 Z"/>
<path transform="translate(388,728)" fill="#ECB95A" d="M0 0 C0.99 0.66 1.98 1.32 3 2 C3.4375 4.4375 3.4375 4.4375 3 7 C-2.53855291 12.25556115 -12.41365908 14.26337158 -19.875 14.25 C-20.90625 14.1675 -21.9375 14.085 -23 14 C-22.7056225 10.7052364 -22.38286079 9.34741072 -19.890625 7.0859375 C-19.01921875 6.52132812 -18.1478125 5.95671875 -17.25 5.375 C-15.95835937 4.52035156 -15.95835937 4.52035156 -14.640625 3.6484375 C-13.76921875 3.10445312 -12.8978125 2.56046875 -12 2 C-11.14148438 1.43152344 -10.28296875 0.86304688 -9.3984375 0.27734375 C-5.96575252 -1.55081258 -3.70276283 -0.89140587 0 0 Z"/>
<path transform="translate(397,492)" fill="#F4C361" d="M0 0 C3.08151769 2.92913495 3.94685473 4.58781028 4.49609375 8.84765625 C4.4974106 10.2527393 4.47740836 11.6579832 4.4375 13.0625 C4.44458984 13.76955078 4.45167969 14.47660156 4.45898438 15.20507812 C4.40772807 19.40415269 3.97666293 21.96017181 1 25 C-0.875 24.6875 -0.875 24.6875 -3 24 C-4.77643921 21.33534119 -5.38801429 19.99267607 -6.0625 17 C-6.61365865 14.59494408 -7.21684925 12.34945224 -8 10 C-8.44781145 3.73063973 -8.44781145 3.73063973 -6.8125 1.0625 C-4.26385815 -0.43153143 -2.90641128 -0.56710464 0 0 Z"/>
<path transform="translate(419,708)" fill="#FAD171" d="M0 0 C-0.55490638 3.32943825 -1.20999328 6.11610028 -3 9 C-6 11 -6 11 -8.4375 10.8125 C-11 10 -11 10 -13 8.3125 C-13.66 7.879375 -14.32 7.44625 -15 7 C-18.13759973 7.82175231 -19.70255875 8.70255875 -22 11 C-24.5625 11.1875 -24.5625 11.1875 -27 11 C-28 10 -28 10 -28.3125 7.125 C-28 4 -28 4 -26.37890625 2.30859375 C-23.26871924 0.59773554 -21.15126736 0.76899538 -17.625 0.9375 C-11.38748959 1.22235118 -5.94845313 -1.74954504 0 0 Z"/>
<path transform="translate(393,274)" fill="#7C3E04" d="M0 0 C6.52233125 0.33736196 9.41285141 1.30617353 14 6 C17.55542518 10.02948187 17.50180194 14.16856016 17.35546875 19.33203125 C16.82598979 23.30603268 15.75224407 25.09485349 13 28 C10.75 28.875 10.75 28.875 9 29 C9.875 24.25 9.875 24.25 11 22 C11.6343636 18.05730979 11.81301776 14.49662785 9.87109375 10.921875 C6.74968568 7.04252711 3.98134099 5.06743021 -1 4 C-0.67 2.68 -0.34 1.36 0 0 Z"/>
<path transform="translate(601.83984375,725.20703125)" fill="#F1C060" d="M0 0 C2.69685804 0.98998586 4.29771198 2.4190615 6.41015625 4.35546875 C7.1165625 4.99613281 7.82296875 5.63679687 8.55078125 6.296875 C9.081875 6.79058594 9.61296875 7.28429687 10.16015625 7.79296875 C8.97553456 12.13658163 7.85526479 15.07597717 4.16015625 17.79296875 C1.33327282 17.59227723 0.3528569 17.00255777 -1.578125 14.90234375 C-2.09761719 14.12375 -2.61710938 13.34515625 -3.15234375 12.54296875 C-3.68472656 11.7746875 -4.21710937 11.00640625 -4.765625 10.21484375 C-6.08321975 7.2442665 -5.82610844 5.84422514 -4.83984375 2.79296875 C-2.67412834 -0.30091041 -2.67412834 -0.30091041 0 0 Z"/>
<path transform="translate(344,259)" fill="#F2BE5E" d="M0 0 C6.74896635 0.50617248 11.36182284 3.88945827 16.5 8 C18.38135245 10.50846993 18.41441258 11.93334687 18 15 C17 16 17 16 13.9375 16.5 C8.43858445 15.80172501 5.69660004 12.96853384 2 9 C-0.29013653 5.5647952 -0.17842973 4.014669 0 0 Z"/>
<path transform="translate(357,411)" fill="#773F06" d="M0 0 C2.82631003 0.29750632 4.56696127 0.65655549 6.8125 2.4375 C8 4 8 4 8 6 C8.71542969 6.10183594 9.43085938 6.20367187 10.16796875 6.30859375 C13.34541039 7.08432778 15.54761835 8.32984083 18.3125 10.0625 C19.19550781 10.61035156 20.07851563 11.15820312 20.98828125 11.72265625 C21.65214844 12.14417969 22.31601562 12.56570313 23 13 C22.67 13.66 22.34 14.32 22 15 C15.84689956 15.71815726 10.32687157 16.33289583 4.80859375 13.171875 C2.14725399 10.88531851 -0.08479537 8.94538805 -2 6 C-1.71253823 1.71253823 -1.71253823 1.71253823 0 0 Z"/>
<path transform="translate(367.75,316.125)" fill="#EEBB5B" d="M0 0 C2.25 0.875 2.25 0.875 4.25 2.875 C4.01211109 7.2759448 2.27781581 9.76535133 -0.75 12.875 C-4.01288753 14.95769417 -5.74516162 15.98422156 -9.625 15.5625 C-10.32625 15.335625 -11.0275 15.10875 -11.75 14.875 C-12.0759948 10.20240781 -11.67675987 7.58222917 -8.75 3.875 C-3.84750567 -0.17488662 -3.84750567 -0.17488662 0 0 Z"/>
<path transform="translate(624.4375,693)" fill="#ECB856" d="M0 0 C2.5625 1 2.5625 1 4.5625 3 C4.46923377 6.45085052 3.55235136 8.01383906 1.5 10.8125 C-2.57265825 13.84533061 -4.43712936 13.6349677 -9.4375 13 C-11.9375 11.5 -11.9375 11.5 -13.4375 10 C-13.0738214 7.26346761 -12.62769462 6.17818233 -10.58203125 4.26171875 C-4.26876551 0 -4.26876551 0 0 0 Z"/>
<path transform="translate(363,446)" fill="#F5C25E" d="M0 0 C2.4375 1.625 2.4375 1.625 4 4 C4.44912849 7.14389944 4.504106 9.05480125 3 11.875 C-0.23064911 13.69224012 -3.45628885 13.76139979 -7 13 C-9.5625 10.8125 -9.5625 10.8125 -11 8 C-10.93182826 5.13678706 -10.37360729 3.60192285 -8.875 1.1875 C-5.84814901 -0.72950563 -3.4846244 -0.42793633 0 0 Z"/>
<path transform="translate(454,446)" fill="#F1BE5C" d="M0 0 C1.9375 1.125 1.9375 1.125 3 3 C3.54068562 6.63031776 3.46379841 8.32214079 1.375 11.375 C-1.71186432 13.48706506 -3.3282913 13.61195145 -7 13 C-9.7912125 11.01677007 -10.82597224 9.87013879 -11.5 6.5 C-10.21591544 0.07957718 -5.93091193 -0.75484334 0 0 Z"/>
<path transform="translate(396,446)" fill="#F3C05B" d="M0 0 C2.375 1.0625 2.375 1.0625 4 3 C4.43060657 6.44485259 4.63335287 8.84506242 2.9375 11.9375 C-0.1652833 13.63902633 -2.53769185 13.42519574 -6 13 C-8.8520847 11.02547983 -9.81895125 9.90524375 -10.5 6.5 C-9.32731465 0.63657323 -5.5700283 -0.81229579 0 0 Z"/>
<path transform="translate(421.4375,445.6875)" fill="#F0BC5D" d="M0 0 C3.5625 0.3125 3.5625 0.3125 5.5 1.375 C7.1765629 4.43226176 6.92778977 6.9031288 6.5625 10.3125 C5.4375 12.25 5.4375 12.25 3.5625 13.3125 C-0.05331862 13.85102618 -1.77861489 13.73486225 -4.875 11.75 C-6.4375 9.3125 -6.4375 9.3125 -6.3125 5.6875 C-5.14951423 1.20169775 -4.66151968 0.42377452 0 0 Z"/>
<path transform="translate(418,319)" fill="#F1BC59" d="M0 0 C3.48737684 0 6.02361674 0.2104031 8.796875 2.453125 C11.33299896 5.23078457 12.86416627 7.10737835 13.4375 10.875 C13 13 13 13 12 14 C9.375 14.5625 9.375 14.5625 6 14 C3.17902874 11.67551968 0.85869028 9.15097494 -1 6 C-1.2578125 3.29296875 -1.2578125 3.29296875 -1 1 C-0.67 0.67 -0.34 0.34 0 0 Z"/>
<path transform="translate(660,710)" fill="#EFBD59" d="M0 0 C3.78184396 0.10505122 5.0063986 1.00597202 7.8125 3.625 C9.82596463 6.25457211 10.03376818 7.25326135 10.5 10.75 C10.335 11.8225 10.17 12.895 10 14 C7 16 7 16 5.0625 16 C1.72889837 14.3837083 0.66029005 12.26128404 -1 9 C-1.3744658 6.18894163 -1.24241211 3.86046296 -1 1 C-0.67 0.67 -0.34 0.34 0 0 Z"/>
<path transform="translate(364,555)" fill="#8E500B" d="M0 0 C1.98 0.99 1.98 0.99 4 2 C4 2.66 4 3.32 4 4 C4.7425 4.10054687 5.485 4.20109375 6.25 4.3046875 C13.38267898 6.10812054 18.16143784 13.12220169 22 19 C21.34 19.99 20.68 20.98 20 22 C18.07802153 20.44368095 16.1625442 18.88034147 14.25 17.3125 C13.71117187 16.87744141 13.17234375 16.44238281 12.6171875 15.99414062 C9.30741437 13.26963226 6.48308153 10.53778849 4 7 C4 6.34 4 5.68 4 5 C3.01 4.67 2.02 4.34 1 4 C0.3125 1.9375 0.3125 1.9375 0 0 Z"/>
<path transform="translate(429,491)" fill="#EFC063" d="M0 0 C0.33 1.32 0.66 2.64 1 4 C-4.86308263 9.82838983 -4.86308263 9.82838983 -9.3125 10.5 C-12 10 -12 10 -14 8 C-14.125 5.375 -14.125 5.375 -14 3 C-9.05485878 0.07558908 -5.81671503 -1.74501451 0 0 Z"/>
<path transform="translate(365,248)" fill="#EFBC5B" d="M0 0 C3.75758262 0.16700367 5.54289422 0.59101062 8.375 3.125 C10.36368076 6.6434352 10.31215868 9.01997685 10 13 C7.8125 13.8125 7.8125 13.8125 5 14 C2.13427504 11.98096651 0.37479946 10.36827475 -0.5703125 6.91796875 C-0.875 4.75 -0.875 4.75 -1 1 C-0.67 0.67 -0.34 0.34 0 0 Z"/>
<path transform="translate(425,249)" fill="#EBB755" d="M0 0 C0.46557346 3.18141867 0.50963377 5.25343123 -1.3359375 7.95703125 C-2.84258024 9.6935608 -4.37936464 11.369718 -6 13 C-7.65 12.67 -9.3 12.34 -11 12 C-11.875 9.9375 -11.875 9.9375 -12 7 C-8.85211079 2.12948738 -5.99169225 -1.79750768 0 0 Z"/>
<path transform="translate(448,603)" fill="#854A08" d="M0 0 C-0.99284845 8.98367712 -10.34462865 15.61906146 -17 21 C-17.33 20.34 -17.66 19.68 -18 19 C-20.01669827 17.86649466 -20.01669827 17.86649466 -22 17 C-21.05125 16.9175 -20.1025 16.835 -19.125 16.75 C-18.09375 16.5025 -17.0625 16.255 -16 16 C-15.29065466 14.68887399 -14.63156128 13.35031573 -14 12 C-12.75286973 10.44243687 -11.45716395 8.92298848 -10.125 7.4375 C-9.44695312 6.67308594 -8.76890625 5.90867187 -8.0703125 5.12109375 C-3.0718232 0 -3.0718232 0 0 0 Z"/>
<path transform="translate(455.6875,731.0625)" fill="#EDB858" d="M0 0 C2.3125 0.9375 2.3125 0.9375 4.3125 2.9375 C4.20545323 6.04185634 3.05067926 7.25750313 1.0625 9.6875 C-1.6875 11.9375 -1.6875 11.9375 -4.375 12.375 C-6.6875 11.9375 -6.6875 11.9375 -8.6875 9.9375 C-8.59088088 6.36259252 -7.66141225 4.90416565 -5.4375 2.0625 C-2.6875 -0.0625 -2.6875 -0.0625 0 0 Z"/>
<path transform="translate(450,708)" fill="#F3C360" d="M0 0 C3.06434726 0.15714601 4.55269031 0.58353926 6.8125 2.6875 C8.33721863 5.65668891 8.35817561 7.70478441 8 11 C7.34 11.66 6.68 12.32 6 13 C3.625 13 3.625 13 1 12 C-3.06584362 7.18518519 -3.06584362 7.18518519 -2.875 3.75 C-2 2 -2 2 0 0 Z"/>
<path transform="translate(354.4375,291.75)" fill="#ECB856" d="M0 0 C0.78246094 -0.02578125 1.56492187 -0.0515625 2.37109375 -0.078125 C4.5625 0.25 4.5625 0.25 6.34765625 1.578125 C7.5625 3.25 7.5625 3.25 7.5625 6.25 C4.31167327 8.41721782 3.27017847 8.52221018 -0.5 8.5 C-1.37785156 8.50515625 -2.25570313 8.5103125 -3.16015625 8.515625 C-5.4375 8.25 -5.4375 8.25 -7.4375 6.25 C-7.1875 3.6875 -7.1875 3.6875 -6.4375 1.25 C-4.11063547 0.08656773 -2.59028587 0.05104012 0 0 Z"/>
<path transform="translate(530.625,731.125)" fill="#E6B152" d="M0 0 C2.375 0.875 2.375 0.875 4.375 2.875 C4.8125 5.25 4.8125 5.25 4.375 7.875 C2.1875 10.25 2.1875 10.25 -0.625 11.875 C-3.4375 11.625 -3.4375 11.625 -5.625 10.875 C-6.375 7.625 -6.375 7.625 -6.625 3.875 C-4.62083264 0.7916656 -3.72948973 -0.17759475 0 0 Z"/>
<path transform="translate(529,709.125)" fill="#F0BE60" d="M0 0 C2.3701203 1.03692763 3.52249515 1.73261797 5 3.875 C5.42478586 7.95294425 5.31282587 9.40576119 3 12.875 C0.125 12.5625 0.125 12.5625 -3 11.875 C-5.31282587 8.40576119 -5.42478586 6.95294425 -5 2.875 C-3.46856326 0.50127305 -2.85465934 -0.17841621 0 0 Z"/>
<path transform="translate(400.75,709.3125)" fill="#F1C369" d="M0 0 C0.98484375 0.11988281 1.9696875 0.23976563 2.984375 0.36328125 C3.73203125 0.47027344 4.4796875 0.57726562 5.25 0.6875 C5.25 3.6875 5.25 3.6875 4.25 6.6875 C3.26 6.3575 2.27 6.0275 1.25 5.6875 C0.46625 6.326875 -0.3175 6.96625 -1.125 7.625 C-3.75 9.6875 -3.75 9.6875 -6.5 10 C-8.75 9.6875 -8.75 9.6875 -9.75 8.6875 C-10.0625 5.8125 -10.0625 5.8125 -9.75 2.6875 C-6.59698719 -0.56937677 -4.36687071 -0.57185212 0 0 Z"/>
<path transform="translate(359.375,681.75)" fill="#ECBC59" d="M0 0 C2.625 0.25 2.625 0.25 4.4375 1.3125 C6.27650018 4.31297398 5.93171285 6.81481613 5.625 10.25 C4.635 11.735 4.635 11.735 3.625 13.25 C1.25 13.0625 1.25 13.0625 -1.375 12.25 C-3.53150213 8.65582978 -3.65631253 5.3759171 -3.375 1.25 C-2.375 0.25 -2.375 0.25 0 0 Z"/>
<path transform="translate(566,719)" fill="#844606" d="M0 0 C3 1 3 1 5 4 C6.65 3.67 8.3 3.34 10 3 C9.02133662 4.14626322 8.04205413 5.29199788 7.0625 6.4375 C6.51722656 7.07558594 5.97195313 7.71367188 5.41015625 8.37109375 C3.15622408 10.97466637 3.15622408 10.97466637 0.6875 11.375 C-2 11 -2 11 -4.3125 8.5 C-4.869375 7.675 -5.42625 6.85 -6 6 C-4 4 -2 2 0 0 Z"/>
<path transform="translate(455.625,566.25)" fill="#EFC164" d="M0 0 C2.375 0.75 2.375 0.75 3.375 1.75 C2.775 8.35 2.775 8.35 0.375 10.75 C-2.125 11 -2.125 11 -4.625 10.75 C-5.285 10.09 -5.945 9.43 -6.625 8.75 C-6.42655087 5.64096369 -6.07476842 3.44714105 -4.375 0.8125 C-2.625 -0.25 -2.625 -0.25 0 0 Z"/>
<path transform="translate(490,720)" fill="#824707" d="M0 0 C0.99 0 1.98 0 3 0 C3.474375 0.639375 3.94875 1.27875 4.4375 1.9375 C6.22490611 4.29687606 7.13667247 4.60505827 10 5 C7.84302194 8.23546708 6.48634601 9.37844371 3 11 C-0.4010144 10.76271993 -1.569534 10.430466 -4 8 C-3.66630785 4.66307847 -2.25902102 2.43279187 0 0 Z"/>
<path transform="translate(393,244)" fill="#EFBC5D" d="M0 0 C4.55555556 0.55555556 4.55555556 0.55555556 6 2 C6.27314815 7.73611111 6.27314815 7.73611111 6 10 C5.34 10.66 4.68 11.32 4 12 C-0.55555556 11.44444444 -0.55555556 11.44444444 -2 10 C-2.27314815 4.26388889 -2.27314815 4.26388889 -2 2 C-1.34 1.34 -0.68 0.68 0 0 Z"/>
<path transform="translate(431.75,583.25)" fill="#F2C563" d="M0 0 C0.7425 0.2475 1.485 0.495 2.25 0.75 C1.65 7.11 1.65 7.11 0 9.75 C-1.75 10.75 -1.75 10.75 -4.4375 10.4375 C-5.200625 10.210625 -5.96375 9.98375 -6.75 9.75 C-7.07728047 6.14991481 -7.15422813 4.33388508 -5.0625 1.3125 C-2.75 -0.25 -2.75 -0.25 0 0 Z"/>
<path transform="translate(400,720)" fill="#F3C05F" d="M0 0 C3.75561867 0.32657554 6.73602552 1.1169378 10 3 C9.34 4.65 8.68 6.3 8 8 C6.52093108 8.02689216 5.04172517 8.04634621 3.5625 8.0625 C2.32693359 8.07990234 2.32693359 8.07990234 1.06640625 8.09765625 C-1 8 -1 8 -2 7 C-2.1875 4.5625 -2.1875 4.5625 -2 2 C-1.34 1.34 -0.68 0.68 0 0 Z"/>
<path transform="translate(366,493)" fill="#F3C566" d="M0 0 C1.43655854 -0.08131463 2.8744483 -0.13933559 4.3125 -0.1875 C5.51326172 -0.23970703 5.51326172 -0.23970703 6.73828125 -0.29296875 C9 0 9 0 10.80859375 1.37890625 C12 3 12 3 11.75 5.125 C11 7 11 7 10 8 C6.35696353 8.40478183 4.62191293 8.45825163 1.625 6.25 C0 4 0 4 0 0 Z"/>
<path transform="translate(451.0625,369.8125)" fill="#EEBC5C" d="M0 0 C2.9375 0.1875 2.9375 0.1875 3.9375 1.1875 C4.125 4.125 4.125 4.125 3.9375 7.1875 C1.9375 9.1875 1.9375 9.1875 -1.0625 9.4375 C-4.0625 9.1875 -4.0625 9.1875 -6.0625 7.1875 C-5.60768667 2.63936665 -4.93056733 0.30187147 0 0 Z"/>
<path transform="translate(391,405)" fill="#ECB95F" d="M0 0 C2.33944736 0.28730055 4.6739143 0.61936779 7 1 C7.6875 3.3125 7.6875 3.3125 8 6 C6.875 7.875 6.875 7.875 5 9 C1.65807308 8.75546876 0.39456443 8.39456443 -2 6 C-1.44444444 1.44444444 -1.44444444 1.44444444 0 0 Z"/>
<path transform="translate(357,358)" fill="#713905" d="M0 0 C3.79549259 0.54581199 5.30979295 2.05409295 7.75 4.9375 C8.67039062 6.00291016 8.67039062 6.00291016 9.609375 7.08984375 C11 9 11 9 11 11 C7.97478804 11.43217314 5.84477938 11.55386198 3.23046875 9.83984375 C1.558263 8.30862022 0.21575325 6.91559645 -1 5 C-0.875 2.125 -0.875 2.125 0 0 Z"/>
<path transform="translate(358.6875,383.375)" fill="#EDBD5E" d="M0 0 C0.763125 0.20625 1.52625 0.4125 2.3125 0.625 C2.69313221 2.9510857 3.02519945 5.28555264 3.3125 7.625 C2.3125 8.625 2.3125 8.625 -0.625 8.8125 C-3.6875 8.625 -3.6875 8.625 -5.6875 6.625 C-6 4.125 -6 4.125 -5.6875 1.625 C-2.6875 -0.375 -2.6875 -0.375 0 0 Z"/>
<path transform="translate(446,651)" fill="#884C0A" d="M0 0 C-0.52454579 3.93409344 -2.2047353 5.44483844 -5.25 7.875 C-6.01828125 8.51179687 -6.7865625 9.14859375 -7.578125 9.8046875 C-10 11 -10 11 -12.796875 10.1953125 C-13.52390625 9.80085937 -14.2509375 9.40640625 -15 9 C-10.9401644 4.57108844 -6.34294337 0 0 0 Z"/>
<path transform="translate(455.5,670.75)" fill="#ECBC5F" d="M0 0 C2.5 0.25 2.5 0.25 4.5 2.25 C4.17028521 5.54714793 3.8773161 6.8726839 1.5 9.25 C-3.05555556 8.69444444 -3.05555556 8.69444444 -4.5 7.25 C-4.6875 4.8125 -4.6875 4.8125 -4.5 2.25 C-2.5 0.25 -2.5 0.25 0 0 Z"/>
<path transform="translate(435,721)" fill="#F5C360" d="M0 0 C1.32 0 2.64 0 4 0 C6 3 6 3 5.6875 5.625 C5 8 5 8 4 9 C1.5625 9.1875 1.5625 9.1875 -1 9 C-1.66 8.34 -2.32 7.68 -3 7 C-2.67028521 3.70285207 -2.3773161 2.3773161 0 0 Z"/>
<path transform="translate(456,427)" fill="#EDC165" d="M0 0 C1 1 1 1 1.125 3.5 C1 6 1 6 0 7 C-2.9375 7.1875 -2.9375 7.1875 -6 7 C-6.66 6.34 -7.32 5.68 -8 5 C-7.75 2.4375 -7.75 2.4375 -7 0 C-4.31633121 -1.3418344 -2.84719317 -0.73004953 0 0 Z"/>
<path transform="translate(426.5,385.75)" fill="#ECB758" d="M0 0 C2.5 0.25 2.5 0.25 4.5 2.25 C3.94444444 6.80555556 3.94444444 6.80555556 2.5 8.25 C-0.5 8.375 -0.5 8.375 -3.5 8.25 C-4.5 7.25 -4.5 7.25 -4.6875 4.8125 C-4.42807033 1.26696114 -3.53871738 0.35387174 0 0 Z"/>
<path transform="translate(584,721)" fill="#F3BF5E" d="M0 0 C4.55555556 0.55555556 4.55555556 0.55555556 6 2 C6.1875 4.4375 6.1875 4.4375 6 7 C5.34 7.66 4.68 8.32 4 9 C-0.55555556 8.44444444 -0.55555556 8.44444444 -2 7 C-2.1875 4.5625 -2.1875 4.5625 -2 2 C-1.34 1.34 -0.68 0.68 0 0 Z"/>
<path transform="translate(450,400)" fill="#804609" d="M0 0 C0.33 1.98 0.66 3.96 1 6 C-0.6875 7.5625 -0.6875 7.5625 -3 9 C-5.75 8.6875 -5.75 8.6875 -8 8 C-7.6641593 4.89347355 -7.40950721 3.39585697 -5.125 1.1875 C-3 0 -3 0 0 0 Z"/>
<path transform="translate(544,722)" fill="#EEB959" d="M0 0 C3.25696479 0.41755959 4.63443291 0.63443291 7 3 C6.46428571 6.53571429 6.46428571 6.53571429 5 8 C2.5625 8.1875 2.5625 8.1875 0 8 C-0.66 7.34 -1.32 6.68 -2 6 C-1.44444444 1.44444444 -1.44444444 1.44444444 0 0 Z"/>
<path transform="translate(512,722.875)" fill="#F1BF61" d="M0 0 C3 0.125 3 0.125 4 1.125 C4.1875 3.5625 4.1875 3.5625 4 6.125 C3.34 6.785 2.68 7.445 2 8.125 C-2.55555556 7.56944444 -2.55555556 7.56944444 -4 6.125 C-4.125 3.625 -4.125 3.625 -4 1.125 C-3 0.125 -3 0.125 0 0 Z"/>
<path transform="translate(424.6875,533.375)" fill="#F4C769" d="M0 0 C0.763125 0.20625 1.52625 0.4125 2.3125 0.625 C2.4375 3 2.4375 3 2.3125 5.625 C0.3125 7.625 0.3125 7.625 -2.8125 7.75 C-4.235625 7.688125 -4.235625 7.688125 -5.6875 7.625 C-5.875 4.75 -5.875 4.75 -5.6875 1.625 C-2.6875 -0.375 -2.6875 -0.375 0 0 Z"/>
<path transform="translate(614,736)" fill="#F4CC6B" d="M0 0 C3.32820054 -0.22692276 5.41801336 -0.32162419 8.375 1.3125 C10 3 10 3 10 6 C4.66666667 7.33333333 4.66666667 7.33333333 1.625 5.8125 C0 4 0 4 0 0 Z"/>
<path transform="translate(390.4375,642.8125)" fill="#EDBB5E" d="M0 0 C2.5625 0.1875 2.5625 0.1875 4.5625 2.1875 C4.1875 4.8125 4.1875 4.8125 3.5625 7.1875 C1.1875 7.8125 1.1875 7.8125 -1.4375 8.1875 C-3.4375 6.1875 -3.4375 6.1875 -3.625 3.625 C-3.37291261 0.34786389 -3.27713611 0.25208739 0 0 Z"/>
<path transform="translate(393.4375,593.8125)" fill="#EDBB5E" d="M0 0 C2.5625 0.1875 2.5625 0.1875 4.5625 2.1875 C4.1875 4.8125 4.1875 4.8125 3.5625 7.1875 C1.1875 7.8125 1.1875 7.8125 -1.4375 8.1875 C-3.4375 6.1875 -3.4375 6.1875 -3.625 3.625 C-3.37291261 0.34786389 -3.27713611 0.25208739 0 0 Z"/>
<path transform="translate(376,566)" fill="#854706" d="M0 0 C2.1875 0.0625 2.1875 0.0625 5 1 C6.93157957 3.1717219 8.48201687 5.52601047 10 8 C9.01 9.485 9.01 9.485 8 11 C5.03 8.36 2.06 5.72 -1 3 C-0.67 2.01 -0.34 1.02 0 0 Z"/>
<path transform="translate(373,342)" fill="#F1BE5E" d="M0 0 C2.93453261 0.36681658 3.86437246 0.86437246 6 3 C5.63318342 5.93453261 5.13562754 6.86437246 3 9 C-0.53571429 8.46428571 -0.53571429 8.46428571 -2 7 C-2.1875 4.5625 -2.1875 4.5625 -2 2 C-1.34 1.34 -0.68 0.68 0 0 Z"/>
<path transform="translate(451.4375,278.8125)" fill="#EFBD5A" d="M0 0 C2.5625 0.1875 2.5625 0.1875 4.5625 2.1875 C4.19568342 5.12203261 3.69812754 6.05187246 1.5625 8.1875 C-1.37203261 7.82068342 -2.30187246 7.32312754 -4.4375 5.1875 C-3.69457547 0.28419811 -3.69457547 0.28419811 0 0 Z"/>
<path transform="translate(470,722)" fill="#EFBE5B" d="M0 0 C2.625 0.375 2.625 0.375 5 1 C5.625 3.375 5.625 3.375 6 6 C4 8 4 8 1.4375 8.1875 C-1 8 -1 8 -2 7 C-2.1875 4.5625 -2.1875 4.5625 -2 2 C-1.34 1.34 -0.68 0.68 0 0 Z"/>
<path transform="translate(356.5,524.875)" fill="#EEBB5D" d="M0 0 C2.5 0.125 2.5 0.125 3.5 1.125 C3.54080783 3.12458364 3.54254356 5.12545254 3.5 7.125 C1.125 7.75 1.125 7.75 -1.5 8.125 C-3.5 6.125 -3.5 6.125 -3.6875 3.5625 C-3.4324847 0.24730106 -3.33009823 0.16650491 0 0 Z"/>
<path transform="translate(447.6875,346.3125)" fill="#703B08" d="M0 0 C1.1446875 0.3403125 1.1446875 0.3403125 2.3125 0.6875 C1.91250283 3.00748359 1.40682121 4.55073424 0.0625 6.5 C-1.6875 7.6875 -1.6875 7.6875 -4.375 7.375 C-5.138125 7.148125 -5.90125 6.92125 -6.6875 6.6875 C-6.28750283 4.36751641 -5.78182121 2.82426576 -4.4375 0.875 C-2.6875 -0.3125 -2.6875 -0.3125 0 0 Z"/>
<path transform="translate(434,246)" fill="#E7B34E" d="M0 0 C2.00720923 0.28674418 4.0085944 0.61866701 6 1 C6.625 2.875 6.625 2.875 7 5 C5 7 5 7 2.5 7.25 C0 7 0 7 -2 5 C-1.46428571 1.46428571 -1.46428571 1.46428571 0 0 Z"/>
<path transform="translate(426.5,635.875)" fill="#E9B758" d="M0 0 C2.5 0.125 2.5 0.125 3.5 1.125 C3.625 3.625 3.625 3.625 3.5 6.125 C2.5 7.125 2.5 7.125 0.0625 7.3125 C-2.5 7.125 -2.5 7.125 -4.5 5.125 C-3.7519084 0.18759542 -3.7519084 0.18759542 0 0 Z"/>
<path transform="translate(411,343)" fill="#EDBA5C" d="M0 0 C2.625 0.375 2.625 0.375 5 1 C5.625 2.875 5.625 2.875 6 5 C5.34 5.66 4.68 6.32 4 7 C1.375 6.625 1.375 6.625 -1 6 C-1.625 4.125 -1.625 4.125 -2 2 C-1.34 1.34 -0.68 0.68 0 0 Z"/>
<path transform="translate(469,710)" fill="#F0C364" d="M0 0 C2.625 0.375 2.625 0.375 5 1 C5.625 2.875 5.625 2.875 6 5 C5.34 5.66 4.68 6.32 4 7 C1.375 6.625 1.375 6.625 -1 6 C-1.625 4.125 -1.625 4.125 -2 2 C-1.34 1.34 -0.68 0.68 0 0 Z"/>
<path transform="translate(372,397)" fill="#F1C165" d="M0 0 C1.66611905 -0.042721 3.33382885 -0.04063832 5 0 C6 1 6 1 6.0625 3.5625 C6.041875 4.366875 6.02125 5.17125 6 6 C3.625 6.625 3.625 6.625 1 7 C0.34 6.34 -0.32 5.68 -1 5 C-0.625 2.375 -0.625 2.375 0 0 Z"/>
<path transform="translate(401,716)" fill="#652D01" d="M0 0 C6.52307692 0.49230769 6.52307692 0.49230769 8.9375 3.0625 C9.288125 3.701875 9.63875 4.34125 10 5 C5.83861737 5.08159574 2.0527516 4.98248524 -2 4 C-1.34 2.68 -0.68 1.36 0 0 Z"/>
<path transform="translate(352,699)" fill="#F6D16F" d="M0 0 C1.98 0 3.96 0 6 0 C6.625 1.875 6.625 1.875 7 4 C5 6 5 6 2.375 6.125 C1.59125 6.08375 0.8075 6.0425 0 6 C0 4.02 0 2.04 0 0 Z"/>
<path transform="translate(409,398)" fill="#F5CC73" d="M0 0 C1.65 0 3.3 0 5 0 C5.625 1.875 5.625 1.875 6 4 C5.34 4.66 4.68 5.32 4 6 C1.375 5.625 1.375 5.625 -1 5 C-0.67 3.35 -0.34 1.7 0 0 Z"/>
<path transform="translate(438,316)" fill="#F2D469" d="M0 0 C2.97 0.495 2.97 0.495 6 1 C6 2.32 6 3.64 6 5 C1.25 6.125 1.25 6.125 -1 5 C-0.67 3.35 -0.34 1.7 0 0 Z"/>
<path transform="translate(544,710)" fill="#B87924" d="M0 0 C1.67542976 0.28604898 3.34385343 0.61781233 5 1 C4.67 2.65 4.34 4.3 4 6 C2.35 6 0.7 6 -1 6 C-1.042721 4.33388095 -1.04063832 2.66617115 -1 1 C-0.67 0.67 -0.34 0.34 0 0 Z"/>
<path transform="translate(452,516)" fill="#BC7D24" d="M0 0 C2.0625 0.4375 2.0625 0.4375 4 1 C4.33 2.32 4.66 3.64 5 5 C3.35 5.33 1.7 5.66 0 6 C-0.38218767 4.34385343 -0.71395102 2.67542976 -1 1 C-0.67 0.67 -0.34 0.34 0 0 Z"/>
<path transform="translate(429,525)" fill="#F6CB71" d="M0 0 C2.0625 0.4375 2.0625 0.4375 4 1 C4 2.65 4 4.3 4 6 C2.35 6 0.7 6 -1 6 C-1.042721 4.33388095 -1.04063832 2.66617115 -1 1 C-0.67 0.67 -0.34 0.34 0 0 Z"/>
<path transform="translate(354,575)" fill="#ECC362" d="M0 0 C1.98 0.495 1.98 0.495 4 1 C4 2.65 4 4.3 4 6 C2.35 5.67 0.7 5.34 -1 5 C-0.67 3.35 -0.34 1.7 0 0 Z"/>
<path transform="translate(426,526)" fill="#683100" d="M0 0 C0.268125 0.598125 0.53625 1.19625 0.8125 1.8125 C1.98493467 3.97224808 3.19369282 5.35790256 5 7 C4.01 7.99 3.02 8.98 2 10 C0.35 8.35 -1.3 6.7 -3 5 C-2.34 5 -1.68 5 -1 5 C-0.67 3.35 -0.34 1.7 0 0 Z"/>
<path transform="translate(391,384)" fill="#854B09" d="M0 0 C2.475 0.495 2.475 0.495 5 1 C4.67 2.65 4.34 4.3 4 6 C2.68 5.67 1.36 5.34 0 5 C0 3.35 0 1.7 0 0 Z"/>
<path transform="translate(560,727)" fill="#EAB757" d="M0 0 C0.66 0.33 1.32 0.66 2 1 C0.87895467 2.31587941 -0.24696965 3.62760353 -1.375 4.9375 C-2.00148438 5.66839844 -2.62796875 6.39929688 -3.2734375 7.15234375 C-5 9 -5 9 -7 10 C-6.42424336 6.64749299 -5.40693737 5.06181371 -2.9375 2.75 C-2.38964844 2.22921875 -1.84179688 1.7084375 -1.27734375 1.171875 C-0.64505859 0.59179688 -0.64505859 0.59179688 0 0 Z"/>
<path transform="translate(355,586)" fill="#D09943" d="M0 0 C1.65 0 3.3 0 5 0 C3.625 2 3.625 2 2 4 C1.34 4 0.68 4 0 4 C0 6.97 0 9.94 0 13 C-0.33 13 -0.66 13 -1 13 C-1.02696365 11.20841511 -1.04637917 9.41671527 -1.0625 7.625 C-1.07410156 6.62726562 -1.08570313 5.62953125 -1.09765625 4.6015625 C-1 2 -1 2 0 0 Z"/>
<path transform="translate(417,422)" fill="#844B0F" d="M0 0 C0 1.32 0 2.64 0 4 C-1.65 4.33 -3.3 4.66 -5 5 C-5.33 3.68 -5.66 2.36 -6 1 C-4 0 -4 0 0 0 Z"/>
<path transform="translate(342,247)" fill="#EABD4A" d="M0 0 C0.99 0.33 1.98 0.66 3 1 C3 2.65 3 4.3 3 6 C1.35 5.67 -0.3 5.34 -2 5 C-1.125 1.125 -1.125 1.125 0 0 Z"/>
<path transform="translate(348,711)" fill="#BD8021" d="M0 0 C2.475 0.495 2.475 0.495 5 1 C4.67 2.32 4.34 3.64 4 5 C2.68 4.67 1.36 4.34 0 4 C0 2.68 0 1.36 0 0 Z"/>
<path transform="translate(401,710)" fill="#EFB952" d="M0 0 C1.65 0 3.3 0 5 0 C5 3 5 3 4 6 C2.68 5.67 1.36 5.34 0 5 C0 3.35 0 1.7 0 0 Z"/>
<path transform="translate(621,737)" fill="#ECC362" d="M0 0 C0.99 0.66 1.98 1.32 3 2 C3 2.99 3 3.98 3 5 C1.02 5.33 -0.96 5.66 -3 6 C-3 5.34 -3 4.68 -3 4 C-2.01 3.34 -1.02 2.68 0 2 C0 1.34 0 0.68 0 0 Z"/>
<path transform="translate(435,721)" fill="#E4AF56" d="M0 0 C2.125 0.375 2.125 0.375 4 1 C2.824375 1.928125 2.824375 1.928125 1.625 2.875 C-0.96837647 4.89858661 -0.96837647 4.89858661 -3 7 C-2.25 2.25 -2.25 2.25 0 0 Z"/>
<path transform="translate(355,700)" fill="#F7CA62" d="M0 0 C0.99 0.99 1.98 1.98 3 3 C2.67 3.66 2.34 4.32 2 5 C0.35 5 -1.3 5 -3 5 C-2.01 3.35 -1.02 1.7 0 0 Z"/>
<path transform="translate(372,397)" fill="#E5B55B" d="M0 0 C1.65 0 3.3 0 5 0 C4.505 0.433125 4.01 0.86625 3.5 1.3125 C1.66781808 2.99740483 1.66781808 2.99740483 2 6 C1.01 5.67 0.02 5.34 -1 5 C-0.67 3.35 -0.34 1.7 0 0 Z"/>
<path transform="translate(421,660)" fill="#E3B159" d="M0 0 C0.33 0.66 0.66 1.32 1 2 C0.67 2.99 0.34 3.98 0 5 C0.66 5 1.32 5 2 5 C2 5.66 2 6.32 2 7 C0.68 7 -0.64 7 -2 7 C-2.125 4.625 -2.125 4.625 -2 2 C-1.34 1.34 -0.68 0.68 0 0 Z"/>
</svg>